<svg id="wave" style="transform:rotate(180deg); transition: 0.3s" viewBox="0 0 1440 220" version="1.1"
        xmlns="http://www.w3.org/2000/svg">
        <defs>
          <linearGradient id="sw-gradient-0" x1="0" x2="0" y1="1" y2="0">
            <stop stop-color="rgba(163, 177, 138, 1)" offset="0%"></stop>
            <stop stop-color="rgba(202, 212, 183, 1)" offset="100%"></stop>
          </linearGradient>
        </defs>
        <path style="transform:translate(0, 0px); opacity:1" fill="url(#sw-gradient-0)"
          d="M0,110L34.3,99C68.6,88,137,66,206,62.3C274.3,59,343,73,411,99C480,125,549,161,617,150.3C685.7,139,754,81,823,51.3C891.4,22,960,22,1029,22C1097.1,22,1166,22,1234,44C1302.9,66,1371,110,1440,110C1508.6,110,1577,66,1646,66C1714.3,66,1783,110,1851,110C1920,110,1989,66,2057,40.3C2125.7,15,2194,7,2263,33C2331.4,59,2400,117,2469,143C2537.1,169,2606,161,2674,154C2742.9,147,2811,139,2880,124.7C2948.6,110,3017,88,3086,80.7C3154.3,73,3223,81,3291,73.3C3360,66,3429,44,3497,44C3565.7,44,3634,66,3703,95.3C3771.4,125,3840,161,3909,179.7C3977.1,198,4046,198,4114,190.7C4182.9,183,4251,169,4320,165C4388.6,161,4457,169,4526,172.3C4594.3,176,4663,176,4731,146.7C4800,117,4869,59,4903,29.3L4937.1,0L4937.1,220L4902.9,220C4868.6,220,4800,220,4731,220C4662.9,220,4594,220,4526,220C4457.1,220,4389,220,4320,220C4251.4,220,4183,220,4114,220C4045.7,220,3977,220,3909,220C3840,220,3771,220,3703,220C3634.3,220,3566,220,3497,220C3428.6,220,3360,220,3291,220C3222.9,220,3154,220,3086,220C3017.1,220,2949,220,2880,220C2811.4,220,2743,220,2674,220C2605.7,220,2537,220,2469,220C2400,220,2331,220,2263,220C2194.3,220,2126,220,2057,220C1988.6,220,1920,220,1851,220C1782.9,220,1714,220,1646,220C1577.1,220,1509,220,1440,220C1371.4,220,1303,220,1234,220C1165.7,220,1097,220,1029,220C960,220,891,220,823,220C754.3,220,686,220,617,220C548.6,220,480,220,411,220C342.9,220,274,220,206,220C137.1,220,69,220,34,220L0,220Z">
        </path>
        <defs>
          <linearGradient id="sw-gradient-1" x1="0" x2="0" y1="1" y2="0">
            <stop stop-color="rgba(163, 177, 138, 1)" offset="0%"></stop>
            <stop stop-color="rgba(202, 212, 183, 1)" offset="100%"></stop>
          </linearGradient>
        </defs>
        <path style="transform:translate(0, 50px); opacity:0.9" fill="url(#sw-gradient-1)"
          d="M0,44L34.3,62.3C68.6,81,137,117,206,113.7C274.3,110,343,66,411,51.3C480,37,549,51,617,55C685.7,59,754,51,823,55C891.4,59,960,73,1029,91.7C1097.1,110,1166,132,1234,117.3C1302.9,103,1371,51,1440,55C1508.6,59,1577,117,1646,124.7C1714.3,132,1783,88,1851,77C1920,66,1989,88,2057,99C2125.7,110,2194,110,2263,110C2331.4,110,2400,110,2469,102.7C2537.1,95,2606,81,2674,84.3C2742.9,88,2811,110,2880,128.3C2948.6,147,3017,161,3086,143C3154.3,125,3223,73,3291,66C3360,59,3429,95,3497,95.3C3565.7,95,3634,59,3703,44C3771.4,29,3840,37,3909,62.3C3977.1,88,4046,132,4114,139.3C4182.9,147,4251,117,4320,95.3C4388.6,73,4457,59,4526,55C4594.3,51,4663,59,4731,51.3C4800,44,4869,22,4903,11L4937.1,0L4937.1,220L4902.9,220C4868.6,220,4800,220,4731,220C4662.9,220,4594,220,4526,220C4457.1,220,4389,220,4320,220C4251.4,220,4183,220,4114,220C4045.7,220,3977,220,3909,220C3840,220,3771,220,3703,220C3634.3,220,3566,220,3497,220C3428.6,220,3360,220,3291,220C3222.9,220,3154,220,3086,220C3017.1,220,2949,220,2880,220C2811.4,220,2743,220,2674,220C2605.7,220,2537,220,2469,220C2400,220,2331,220,2263,220C2194.3,220,2126,220,2057,220C1988.6,220,1920,220,1851,220C1782.9,220,1714,220,1646,220C1577.1,220,1509,220,1440,220C1371.4,220,1303,220,1234,220C1165.7,220,1097,220,1029,220C960,220,891,220,823,220C754.3,220,686,220,617,220C548.6,220,480,220,411,220C342.9,220,274,220,206,220C137.1,220,69,220,34,220L0,220Z">
        </path>
        <defs>
          <linearGradient id="sw-gradient-2" x1="0" x2="0" y1="1" y2="0">
            <stop stop-color="rgba(133, 151, 98, 1)" offset="0%"></stop>
            <stop stop-color="rgba(202, 212, 183, 1)" offset="100%"></stop>
          </linearGradient>
        </defs>
        <path style="transform:translate(0, 100px); opacity:0.8" fill="url(#sw-gradient-2)"
          d="M0,22L34.3,29.3C68.6,37,137,51,206,51.3C274.3,51,343,37,411,44C480,51,549,81,617,102.7C685.7,125,754,139,823,124.7C891.4,110,960,66,1029,51.3C1097.1,37,1166,51,1234,55C1302.9,59,1371,51,1440,66C1508.6,81,1577,117,1646,117.3C1714.3,117,1783,81,1851,80.7C1920,81,1989,117,2057,121C2125.7,125,2194,95,2263,69.7C2331.4,44,2400,22,2469,36.7C2537.1,51,2606,103,2674,113.7C2742.9,125,2811,95,2880,73.3C2948.6,51,3017,37,3086,29.3C3154.3,22,3223,22,3291,29.3C3360,37,3429,51,3497,58.7C3565.7,66,3634,66,3703,80.7C3771.4,95,3840,125,3909,124.7C3977.1,125,4046,95,4114,95.3C4182.9,95,4251,125,4320,128.3C4388.6,132,4457,110,4526,117.3C4594.3,125,4663,161,4731,150.3C4800,139,4869,81,4903,51.3L4937.1,22L4937.1,220L4902.9,220C4868.6,220,4800,220,4731,220C4662.9,220,4594,220,4526,220C4457.1,220,4389,220,4320,220C4251.4,220,4183,220,4114,220C4045.7,220,3977,220,3909,220C3840,220,3771,220,3703,220C3634.3,220,3566,220,3497,220C3428.6,220,3360,220,3291,220C3222.9,220,3154,220,3086,220C3017.1,220,2949,220,2880,220C2811.4,220,2743,220,2674,220C2605.7,220,2537,220,2469,220C2400,220,2331,220,2263,220C2194.3,220,2126,220,2057,220C1988.6,220,1920,220,1851,220C1782.9,220,1714,220,1646,220C1577.1,220,1509,220,1440,220C1371.4,220,1303,220,1234,220C1165.7,220,1097,220,1029,220C960,220,891,220,823,220C754.3,220,686,220,617,220C548.6,220,480,220,411,220C342.9,220,274,220,206,220C137.1,220,69,220,34,220L0,220Z">
        </path>
      </svg>
